<?xml version="1.0" standalone="no"?><!DOCTYPE svg PUBLIC "-//W3C//DTD SVG 1.1//EN"
        "http://www.w3.org/Graphics/SVG/1.1/DTD/svg11.dtd">
<svg class="icon" viewBox="0 0 1024 1024" version="1.1" xmlns="http://www.w3.org/2000/svg" p-id="2121"
     width="200" height="200">
    <defs>
        <style type="text/css"/>
    </defs>
    <path d="M170.666667 213.333333v597.333334h682.666666V213.333333H170.666667zM128 128h768a42.666667 42.666667 0 0 1 42.666667 42.666667v682.666666a42.666667 42.666667 0 0 1-42.666667 42.666667H128a42.666667 42.666667 0 0 1-42.666667-42.666667V170.666667a42.666667 42.666667 0 0 1 42.666667-42.666667z m503.168 289.834667L554.666667 341.333333h213.333333v213.333334l-76.501333-76.501334-164.864 164.864-90.496-90.496-120.704 120.661334-60.330667-60.330667 181.034667-181.034667 90.496 90.538667 104.533333-104.533333z"
          fill="#1296db"/>
</svg>